<?xml version="1.0" encoding="utf-8"?>
<!-- Generator: Adobe Illustrator 27.2.0, SVG Export Plug-In . SVG Version: 6.00 Build 0)  -->
<svg version="1.1" id="Cloudant" xmlns="http://www.w3.org/2000/svg" xmlns:xlink="http://www.w3.org/1999/xlink" x="0px" y="0px"
	 viewBox="0 0 32 32" style="enable-background:new 0 0 32 32;" xml:space="preserve">
<style type="text/css">
	.st0{fill:#FFFFFF;}
	.st1{fill:#FFFFFF;filter:url(#Adobe_OpacityMaskFilter);}
	.st2{fill:url(#SVGID_1_);}
	.st3{fill:url(#SVGID_00000072962817249880992590000018053773916180108710_);}
	.st4{mask:url(#dpxrzisrkc_00000128483777751083779580000001427956813655138963_);}
	.st5{fill:url(#SVGID_00000072251429319711312490000002514345216236725408_);}
	.st6{fill:#001D6C;}
</style>
<path class="st0" d="M4.8,0h22.4C29.9,0,32,2.1,32,4.8v22.4c0,2.7-2.1,4.8-4.8,4.8H4.8C2.1,32,0,29.9,0,27.2V4.8C0,2.1,2.1,0,4.8,0z
	"/>
<defs>
	<filter id="Adobe_OpacityMaskFilter" filterUnits="userSpaceOnUse" x="2" y="2" width="28" height="28">
		<feColorMatrix  type="matrix" values="1 0 0 0 0  0 1 0 0 0  0 0 1 0 0  0 0 0 1 0"/>
	</filter>
</defs>
<mask maskUnits="userSpaceOnUse" x="2" y="2" width="28" height="28" id="dpxrzisrkc_00000128483777751083779580000001427956813655138963_">
	<path class="st1" d="M5.5,14.2h1.8v-1.8c0-2.4,2-4.4,4.4-4.4h5.2V6.4h-5.2c-3.4,0-6.1,2.7-6.1,6.1V14.2z M16.9,24.8h3.5
		c3.4,0,6.1-2.7,6.1-6.1v-1.8h-1.8v1.8c0,2.4-2,4.4-4.4,4.4h-3.5V24.8z"/>
	
		<linearGradient id="SVGID_1_" gradientUnits="userSpaceOnUse" x1="-1683" y1="10.5625" x2="-1676" y2="10.5625" gradientTransform="matrix(-1 0 0 -1 -1660 34)">
		<stop  offset="0" style="stop-color:#000000;stop-opacity:0"/>
		<stop  offset="0.8" style="stop-color:#000000"/>
	</linearGradient>
	<path class="st2" d="M23,25.6h-7v-4.4h7V25.6z"/>
	
		<linearGradient id="SVGID_00000129892659407907597220000012896619348676979119_" gradientUnits="userSpaceOnUse" x1="-3682.25" y1="8192.25" x2="-3675.25" y2="8192.25" gradientTransform="matrix(1 0 0 1 3693 -8185)">
		<stop  offset="0" style="stop-color:#000000;stop-opacity:0"/>
		<stop  offset="0.8" style="stop-color:#000000"/>
	</linearGradient>
	<path style="fill:url(#SVGID_00000129892659407907597220000012896619348676979119_);" d="M10.8,5.5h7V9h-7V5.5z"/>
</mask>
<g class="st4">
	
		<linearGradient id="SVGID_00000044177023350971942640000007099697461596695457_" gradientUnits="userSpaceOnUse" x1="854.5617" y1="4.4043" x2="827.2479" y2="31.7183" gradientTransform="matrix(-1 0 0 -1 856.9661 34)">
		<stop  offset="0.1" style="stop-color:#08BDBA"/>
		<stop  offset="0.9" style="stop-color:#0F62FE"/>
	</linearGradient>
	<path style="fill:url(#SVGID_00000044177023350971942640000007099697461596695457_);" d="M30,30H2V2h28V30z"/>
</g>
<path class="st6" d="M23,3.8c-2.1,0-3.9,1.3-4.6,3.3c-1.9,0.7-2.9,2.8-2.2,4.8c0.5,1.5,1.9,2.4,3.5,2.4h6.7c2.1-0.1,3.7-1.8,3.6-3.8
	c0-1.5-1-2.9-2.4-3.4C26.9,5.1,25,3.8,23,3.8z M19.7,12.5c-1.1,0-2-0.9-2-2c0-0.9,0.7-1.7,1.6-1.9l0.6-0.1L20,7.9
	c0.4-1.7,2-2.7,3.6-2.3c1.2,0.3,2.1,1.2,2.3,2.3l0.1,0.6l0.6,0.1c1.1,0.2,1.8,1.3,1.5,2.3c-0.2,0.9-0.9,1.5-1.9,1.6H19.7z
	 M10.7,16.9H5.5c-1,0-1.7,0.8-1.7,1.8v8.8c0,1,0.8,1.8,1.7,1.8h5.2c1,0,1.8-0.8,1.8-1.8v-8.8C12.5,17.7,11.7,16.9,10.7,16.9z
	 M5.5,20.4v-1.8h5.2v1.8H5.5z M5.5,23.9v-1.8h5.2v1.8H5.5z M5.5,27.4v-1.8h5.2v1.8H5.5z"/>
</svg>
