<?xml version="1.0" encoding="utf-8"?>
<!-- Generator: Adobe Illustrator 27.2.0, SVG Export Plug-In . SVG Version: 6.00 Build 0)  -->
<svg version="1.1" id="WatsonAssistant" xmlns="http://www.w3.org/2000/svg" xmlns:xlink="http://www.w3.org/1999/xlink" x="0px"
	 y="0px" viewBox="0 0 32 32" style="enable-background:new 0 0 32 32;" xml:space="preserve">
<style type="text/css">
	.st0{fill:#FFFFFF;}
	.st1{fill:#FFFFFF;filter:url(#Adobe_OpacityMaskFilter);}
	.st2{fill:url(#Gradients__black__00000100369161191158319530000002382617656367515070_);}
	.st3{fill:url(#SVGID_1_);}
	.st4{mask:url(#ibce7wmu3c_00000083791908918762297670000012007046253164838797_);}
	.st5{fill:url(#SVGID_00000144304212532547031920000007196733803609575869_);}
	.st6{fill:#001D6C;}
</style>
<path class="st0" d="M4.8,0h22.4C29.9,0,32,2.1,32,4.8v22.4c0,2.7-2.1,4.8-4.8,4.8H4.8C2.1,32,0,29.9,0,27.2V4.8C0,2.1,2.1,0,4.8,0z
	"/>
<defs>
	<filter id="Adobe_OpacityMaskFilter" filterUnits="userSpaceOnUse" x="4" y="4" width="24" height="24">
		<feColorMatrix  type="matrix" values="1 0 0 0 0  0 1 0 0 0  0 0 1 0 0  0 0 0 1 0"/>
	</filter>
</defs>
<mask maskUnits="userSpaceOnUse" x="4" y="4" width="24" height="24" id="ibce7wmu3c_00000083791908918762297670000012007046253164838797_">
	<path class="st1" d="M14.5,23.5h-6c-1.7,0-3-1.3-3-3V13c0-1.7,1.3-3,3-3h6v1.5h-6C7.7,11.5,7,12.2,7,13v7.5C7,21.3,7.7,22,8.5,22h6
		V23.5L14.5,23.5z"/>
	
		<linearGradient id="Gradients__black__00000101788507862999340100000010204793959210972826_" gradientUnits="userSpaceOnUse" x1="-146.153" y1="60.75" x2="-138.653" y2="60.75" gradientTransform="matrix(1 0 0 -1 153.903 83.5)">
		<stop  offset="0" style="stop-color:#000000;stop-opacity:0"/>
		<stop  offset="0.83" style="stop-color:#000000"/>
	</linearGradient>
	
		<path id="Gradients__black__00000117636020220224153590000016569189729462256799_" style="fill:url(#Gradients__black__00000101788507862999340100000010204793959210972826_);" d="
		M7.8,21.2h7.5v3H7.8V21.2z"/>
	<path class="st0" d="M15,27.2l-1.3-0.8l2.6-4.5h4.2c0.8,0,1.5-0.7,1.5-1.5v-6.7h1.5v6.7c0,1.7-1.3,3-3,3h-3.3L15,27.2L15,27.2z"/>
	
		<linearGradient id="SVGID_1_" gradientUnits="userSpaceOnUse" x1="-1487" y1="164.7103" x2="-1479.5" y2="164.7103" gradientTransform="matrix(6.123234e-17 -1 -1 -6.123234e-17 187.5 -1466.5)">
		<stop  offset="0" style="stop-color:#000000;stop-opacity:0"/>
		<stop  offset="0.6" style="stop-color:#000000"/>
	</linearGradient>
	<path class="st3" d="M21.3,20.5V13h3v7.5H21.3z"/>
</mask>
<g class="st4">
	
		<linearGradient id="SVGID_00000113329032625299071580000007601663176629950887_" gradientUnits="userSpaceOnUse" x1="4" y1="6" x2="28" y2="30" gradientTransform="matrix(1 0 0 -1 0 34)">
		<stop  offset="0.1" style="stop-color:#A56EFF"/>
		<stop  offset="0.9" style="stop-color:#0F62FE"/>
	</linearGradient>
	<path style="fill:url(#SVGID_00000113329032625299071580000007601663176629950887_);" d="M4,4h24v24H4V4z"/>
</g>
<circle class="st6" cx="11.5" cy="16.8" r="0.8"/>
<circle class="st6" cx="14.5" cy="16.8" r="0.8"/>
<circle class="st6" cx="17.5" cy="16.8" r="0.8"/>
<path class="st6" d="M25,5.5h-7.5C16.7,5.5,16,6.2,16,7v4.5c0,0.8,0.7,1.5,1.5,1.5h1.8l1.3,2.2l1.3-0.8l-1.7-3h-2.7V7H25v4.5h-2.2
	V13H25c0.8,0,1.5-0.7,1.5-1.5V7C26.5,6.2,25.8,5.5,25,5.5L25,5.5z"/>
</svg>
