<?xml version="1.0" encoding="utf-8"?>
<!-- Generator: Adobe Illustrator 27.2.0, SVG Export Plug-In . SVG Version: 6.00 Build 0)  -->
<svg version="1.1" id="WatsonAssistant" xmlns="http://www.w3.org/2000/svg" xmlns:xlink="http://www.w3.org/1999/xlink" x="0px"
	 y="0px" viewBox="0 0 32 32" style="enable-background:new 0 0 32 32;" xml:space="preserve">
<style type="text/css">
	.st0{fill:#FFFFFF;}
	.st1{fill:#FFFFFF;filter:url(#Adobe_OpacityMaskFilter);}
	.st2{fill:url(#Gradients__black__00000107549284815502023270000003195180404352245909_);}
	.st3{fill:url(#SVGID_1_);}
	.st4{mask:url(#ibce7wmu3c_00000003825856098000033230000002753889351553440188_);}
	.st5{clip-path:url(#SVGID_00000062190278744011174550000016954860111161497747_);fill:#A56EFF;}
	.st6{clip-path:url(#SVGID_00000062190278744011174550000016954860111161497747_);fill:#A46EFF;}
	.st7{clip-path:url(#SVGID_00000062190278744011174550000016954860111161497747_);fill:#A36EFF;}
	.st8{clip-path:url(#SVGID_00000062190278744011174550000016954860111161497747_);fill:#A26EFF;}
	.st9{clip-path:url(#SVGID_00000062190278744011174550000016954860111161497747_);fill:#A16EFF;}
	.st10{clip-path:url(#SVGID_00000062190278744011174550000016954860111161497747_);fill:#A06EFF;}
	.st11{clip-path:url(#SVGID_00000062190278744011174550000016954860111161497747_);fill:#9F6EFF;}
	.st12{clip-path:url(#SVGID_00000062190278744011174550000016954860111161497747_);fill:#9E6DFF;}
	.st13{clip-path:url(#SVGID_00000062190278744011174550000016954860111161497747_);fill:#9D6DFF;}
	.st14{clip-path:url(#SVGID_00000062190278744011174550000016954860111161497747_);fill:#9C6DFF;}
	.st15{clip-path:url(#SVGID_00000062190278744011174550000016954860111161497747_);fill:#9B6DFF;}
	.st16{clip-path:url(#SVGID_00000062190278744011174550000016954860111161497747_);fill:#9A6DFF;}
	.st17{clip-path:url(#SVGID_00000062190278744011174550000016954860111161497747_);fill:#996DFF;}
	.st18{clip-path:url(#SVGID_00000062190278744011174550000016954860111161497747_);fill:#986DFF;}
	.st19{clip-path:url(#SVGID_00000062190278744011174550000016954860111161497747_);fill:#976DFF;}
	.st20{clip-path:url(#SVGID_00000062190278744011174550000016954860111161497747_);fill:#966DFF;}
	.st21{clip-path:url(#SVGID_00000062190278744011174550000016954860111161497747_);fill:#956DFF;}
	.st22{clip-path:url(#SVGID_00000062190278744011174550000016954860111161497747_);fill:#946DFF;}
	.st23{clip-path:url(#SVGID_00000062190278744011174550000016954860111161497747_);fill:#936DFF;}
	.st24{clip-path:url(#SVGID_00000062190278744011174550000016954860111161497747_);fill:#926CFF;}
	.st25{clip-path:url(#SVGID_00000062190278744011174550000016954860111161497747_);fill:#916CFF;}
	.st26{clip-path:url(#SVGID_00000062190278744011174550000016954860111161497747_);fill:#906CFF;}
	.st27{clip-path:url(#SVGID_00000062190278744011174550000016954860111161497747_);fill:#8F6CFF;}
	.st28{clip-path:url(#SVGID_00000062190278744011174550000016954860111161497747_);fill:#8E6CFF;}
	.st29{clip-path:url(#SVGID_00000062190278744011174550000016954860111161497747_);fill:#8D6CFF;}
	.st30{clip-path:url(#SVGID_00000062190278744011174550000016954860111161497747_);fill:#8C6CFF;}
	.st31{clip-path:url(#SVGID_00000062190278744011174550000016954860111161497747_);fill:#8B6CFF;}
	.st32{clip-path:url(#SVGID_00000062190278744011174550000016954860111161497747_);fill:#8A6CFF;}
	.st33{clip-path:url(#SVGID_00000062190278744011174550000016954860111161497747_);fill:#896CFF;}
	.st34{clip-path:url(#SVGID_00000062190278744011174550000016954860111161497747_);fill:#886CFF;}
	.st35{clip-path:url(#SVGID_00000062190278744011174550000016954860111161497747_);fill:#876CFF;}
	.st36{clip-path:url(#SVGID_00000062190278744011174550000016954860111161497747_);fill:#866CFF;}
	.st37{clip-path:url(#SVGID_00000062190278744011174550000016954860111161497747_);fill:#856BFF;}
	.st38{clip-path:url(#SVGID_00000062190278744011174550000016954860111161497747_);fill:#846BFF;}
	.st39{clip-path:url(#SVGID_00000062190278744011174550000016954860111161497747_);fill:#836BFF;}
	.st40{clip-path:url(#SVGID_00000062190278744011174550000016954860111161497747_);fill:#826BFF;}
	.st41{clip-path:url(#SVGID_00000062190278744011174550000016954860111161497747_);fill:#816BFF;}
	.st42{clip-path:url(#SVGID_00000062190278744011174550000016954860111161497747_);fill:#806BFF;}
	.st43{clip-path:url(#SVGID_00000062190278744011174550000016954860111161497747_);fill:#7F6BFF;}
	.st44{clip-path:url(#SVGID_00000062190278744011174550000016954860111161497747_);fill:#7E6BFF;}
	.st45{clip-path:url(#SVGID_00000062190278744011174550000016954860111161497747_);fill:#7D6BFF;}
	.st46{clip-path:url(#SVGID_00000062190278744011174550000016954860111161497747_);fill:#7C6BFF;}
	.st47{clip-path:url(#SVGID_00000062190278744011174550000016954860111161497747_);fill:#7B6BFF;}
	.st48{clip-path:url(#SVGID_00000062190278744011174550000016954860111161497747_);fill:#7A6BFF;}
	.st49{clip-path:url(#SVGID_00000062190278744011174550000016954860111161497747_);fill:#796AFF;}
	.st50{clip-path:url(#SVGID_00000062190278744011174550000016954860111161497747_);fill:#786AFF;}
	.st51{clip-path:url(#SVGID_00000062190278744011174550000016954860111161497747_);fill:#776AFF;}
	.st52{clip-path:url(#SVGID_00000062190278744011174550000016954860111161497747_);fill:#766AFF;}
	.st53{clip-path:url(#SVGID_00000062190278744011174550000016954860111161497747_);fill:#756AFF;}
	.st54{clip-path:url(#SVGID_00000062190278744011174550000016954860111161497747_);fill:#746AFF;}
	.st55{clip-path:url(#SVGID_00000062190278744011174550000016954860111161497747_);fill:#736AFF;}
	.st56{clip-path:url(#SVGID_00000062190278744011174550000016954860111161497747_);fill:#726AFF;}
	.st57{clip-path:url(#SVGID_00000062190278744011174550000016954860111161497747_);fill:#716AFF;}
	.st58{clip-path:url(#SVGID_00000062190278744011174550000016954860111161497747_);fill:#706AFF;}
	.st59{clip-path:url(#SVGID_00000062190278744011174550000016954860111161497747_);fill:#6F6AFF;}
	.st60{clip-path:url(#SVGID_00000062190278744011174550000016954860111161497747_);fill:#6E6AFF;}
	.st61{clip-path:url(#SVGID_00000062190278744011174550000016954860111161497747_);fill:#6D69FF;}
	.st62{clip-path:url(#SVGID_00000062190278744011174550000016954860111161497747_);fill:#6C69FF;}
	.st63{clip-path:url(#SVGID_00000062190278744011174550000016954860111161497747_);fill:#6B69FF;}
	.st64{clip-path:url(#SVGID_00000062190278744011174550000016954860111161497747_);fill:#6A69FF;}
	.st65{clip-path:url(#SVGID_00000062190278744011174550000016954860111161497747_);fill:#6969FF;}
	.st66{clip-path:url(#SVGID_00000062190278744011174550000016954860111161497747_);fill:#6869FF;}
	.st67{clip-path:url(#SVGID_00000062190278744011174550000016954860111161497747_);fill:#6769FF;}
	.st68{clip-path:url(#SVGID_00000062190278744011174550000016954860111161497747_);fill:#6669FF;}
	.st69{clip-path:url(#SVGID_00000062190278744011174550000016954860111161497747_);fill:#6569FF;}
	.st70{clip-path:url(#SVGID_00000062190278744011174550000016954860111161497747_);fill:#6469FF;}
	.st71{clip-path:url(#SVGID_00000062190278744011174550000016954860111161497747_);fill:#6369FF;}
	.st72{clip-path:url(#SVGID_00000062190278744011174550000016954860111161497747_);fill:#6269FF;}
	.st73{clip-path:url(#SVGID_00000062190278744011174550000016954860111161497747_);fill:#6169FF;}
	.st74{clip-path:url(#SVGID_00000062190278744011174550000016954860111161497747_);fill:#6068FF;}
	.st75{clip-path:url(#SVGID_00000062190278744011174550000016954860111161497747_);fill:#5F68FF;}
	.st76{clip-path:url(#SVGID_00000062190278744011174550000016954860111161497747_);fill:#5E68FF;}
	.st77{clip-path:url(#SVGID_00000062190278744011174550000016954860111161497747_);fill:#5D68FF;}
	.st78{clip-path:url(#SVGID_00000062190278744011174550000016954860111161497747_);fill:#5C68FF;}
	.st79{clip-path:url(#SVGID_00000062190278744011174550000016954860111161497747_);fill:#5B68FF;}
	.st80{clip-path:url(#SVGID_00000062190278744011174550000016954860111161497747_);fill:#5968FE;}
	.st81{clip-path:url(#SVGID_00000062190278744011174550000016954860111161497747_);fill:#5868FE;}
	.st82{clip-path:url(#SVGID_00000062190278744011174550000016954860111161497747_);fill:#5768FE;}
	.st83{clip-path:url(#SVGID_00000062190278744011174550000016954860111161497747_);fill:#5668FE;}
	.st84{clip-path:url(#SVGID_00000062190278744011174550000016954860111161497747_);fill:#5568FE;}
	.st85{clip-path:url(#SVGID_00000062190278744011174550000016954860111161497747_);fill:#5468FE;}
	.st86{clip-path:url(#SVGID_00000062190278744011174550000016954860111161497747_);fill:#5367FE;}
	.st87{clip-path:url(#SVGID_00000062190278744011174550000016954860111161497747_);fill:#5267FE;}
	.st88{clip-path:url(#SVGID_00000062190278744011174550000016954860111161497747_);fill:#5167FE;}
	.st89{clip-path:url(#SVGID_00000062190278744011174550000016954860111161497747_);fill:#5067FE;}
	.st90{clip-path:url(#SVGID_00000062190278744011174550000016954860111161497747_);fill:#4F67FE;}
	.st91{clip-path:url(#SVGID_00000062190278744011174550000016954860111161497747_);fill:#4E67FE;}
	.st92{clip-path:url(#SVGID_00000062190278744011174550000016954860111161497747_);fill:#4D67FE;}
	.st93{clip-path:url(#SVGID_00000062190278744011174550000016954860111161497747_);fill:#4C67FE;}
	.st94{clip-path:url(#SVGID_00000062190278744011174550000016954860111161497747_);fill:#4B67FE;}
	.st95{clip-path:url(#SVGID_00000062190278744011174550000016954860111161497747_);fill:#4A67FE;}
	.st96{clip-path:url(#SVGID_00000062190278744011174550000016954860111161497747_);fill:#4967FE;}
	.st97{clip-path:url(#SVGID_00000062190278744011174550000016954860111161497747_);fill:#4867FE;}
	.st98{clip-path:url(#SVGID_00000062190278744011174550000016954860111161497747_);fill:#4767FE;}
	.st99{clip-path:url(#SVGID_00000062190278744011174550000016954860111161497747_);fill:#4666FE;}
	.st100{clip-path:url(#SVGID_00000062190278744011174550000016954860111161497747_);fill:#4566FE;}
	.st101{clip-path:url(#SVGID_00000062190278744011174550000016954860111161497747_);fill:#4466FE;}
	.st102{clip-path:url(#SVGID_00000062190278744011174550000016954860111161497747_);fill:#4366FE;}
	.st103{clip-path:url(#SVGID_00000062190278744011174550000016954860111161497747_);fill:#4266FE;}
	.st104{clip-path:url(#SVGID_00000062190278744011174550000016954860111161497747_);fill:#4166FE;}
	.st105{clip-path:url(#SVGID_00000062190278744011174550000016954860111161497747_);fill:#4066FE;}
	.st106{clip-path:url(#SVGID_00000062190278744011174550000016954860111161497747_);fill:#3F66FE;}
	.st107{clip-path:url(#SVGID_00000062190278744011174550000016954860111161497747_);fill:#3E66FE;}
	.st108{clip-path:url(#SVGID_00000062190278744011174550000016954860111161497747_);fill:#3D66FE;}
	.st109{clip-path:url(#SVGID_00000062190278744011174550000016954860111161497747_);fill:#3C66FE;}
	.st110{clip-path:url(#SVGID_00000062190278744011174550000016954860111161497747_);fill:#3B66FE;}
	.st111{clip-path:url(#SVGID_00000062190278744011174550000016954860111161497747_);fill:#3A65FE;}
	.st112{clip-path:url(#SVGID_00000062190278744011174550000016954860111161497747_);fill:#3965FE;}
	.st113{clip-path:url(#SVGID_00000062190278744011174550000016954860111161497747_);fill:#3865FE;}
	.st114{clip-path:url(#SVGID_00000062190278744011174550000016954860111161497747_);fill:#3765FE;}
	.st115{clip-path:url(#SVGID_00000062190278744011174550000016954860111161497747_);fill:#3665FE;}
	.st116{clip-path:url(#SVGID_00000062190278744011174550000016954860111161497747_);fill:#3565FE;}
	.st117{clip-path:url(#SVGID_00000062190278744011174550000016954860111161497747_);fill:#3465FE;}
	.st118{clip-path:url(#SVGID_00000062190278744011174550000016954860111161497747_);fill:#3365FE;}
	.st119{clip-path:url(#SVGID_00000062190278744011174550000016954860111161497747_);fill:#3265FE;}
	.st120{clip-path:url(#SVGID_00000062190278744011174550000016954860111161497747_);fill:#3165FE;}
	.st121{clip-path:url(#SVGID_00000062190278744011174550000016954860111161497747_);fill:#3065FE;}
	.st122{clip-path:url(#SVGID_00000062190278744011174550000016954860111161497747_);fill:#2F65FE;}
	.st123{clip-path:url(#SVGID_00000062190278744011174550000016954860111161497747_);fill:#2E64FE;}
	.st124{clip-path:url(#SVGID_00000062190278744011174550000016954860111161497747_);fill:#2D64FE;}
	.st125{clip-path:url(#SVGID_00000062190278744011174550000016954860111161497747_);fill:#2C64FE;}
	.st126{clip-path:url(#SVGID_00000062190278744011174550000016954860111161497747_);fill:#2B64FE;}
	.st127{clip-path:url(#SVGID_00000062190278744011174550000016954860111161497747_);fill:#2A64FE;}
	.st128{clip-path:url(#SVGID_00000062190278744011174550000016954860111161497747_);fill:#2964FE;}
	.st129{clip-path:url(#SVGID_00000062190278744011174550000016954860111161497747_);fill:#2864FE;}
	.st130{clip-path:url(#SVGID_00000062190278744011174550000016954860111161497747_);fill:#2764FE;}
	.st131{clip-path:url(#SVGID_00000062190278744011174550000016954860111161497747_);fill:#2664FE;}
	.st132{clip-path:url(#SVGID_00000062190278744011174550000016954860111161497747_);fill:#2564FE;}
	.st133{clip-path:url(#SVGID_00000062190278744011174550000016954860111161497747_);fill:#2464FE;}
	.st134{clip-path:url(#SVGID_00000062190278744011174550000016954860111161497747_);fill:#2364FE;}
	.st135{clip-path:url(#SVGID_00000062190278744011174550000016954860111161497747_);fill:#2264FE;}
	.st136{clip-path:url(#SVGID_00000062190278744011174550000016954860111161497747_);fill:#2163FE;}
	.st137{clip-path:url(#SVGID_00000062190278744011174550000016954860111161497747_);fill:#2063FE;}
	.st138{clip-path:url(#SVGID_00000062190278744011174550000016954860111161497747_);fill:#1F63FE;}
	.st139{clip-path:url(#SVGID_00000062190278744011174550000016954860111161497747_);fill:#1E63FE;}
	.st140{clip-path:url(#SVGID_00000062190278744011174550000016954860111161497747_);fill:#1D63FE;}
	.st141{clip-path:url(#SVGID_00000062190278744011174550000016954860111161497747_);fill:#1C63FE;}
	.st142{clip-path:url(#SVGID_00000062190278744011174550000016954860111161497747_);fill:#1B63FE;}
	.st143{clip-path:url(#SVGID_00000062190278744011174550000016954860111161497747_);fill:#1A63FE;}
	.st144{clip-path:url(#SVGID_00000062190278744011174550000016954860111161497747_);fill:#1963FE;}
	.st145{clip-path:url(#SVGID_00000062190278744011174550000016954860111161497747_);fill:#1863FE;}
	.st146{clip-path:url(#SVGID_00000062190278744011174550000016954860111161497747_);fill:#1763FE;}
	.st147{clip-path:url(#SVGID_00000062190278744011174550000016954860111161497747_);fill:#1663FE;}
	.st148{clip-path:url(#SVGID_00000062190278744011174550000016954860111161497747_);fill:#1562FE;}
	.st149{clip-path:url(#SVGID_00000062190278744011174550000016954860111161497747_);fill:#1462FE;}
	.st150{clip-path:url(#SVGID_00000062190278744011174550000016954860111161497747_);fill:#1362FE;}
	.st151{clip-path:url(#SVGID_00000062190278744011174550000016954860111161497747_);fill:#1262FE;}
	.st152{clip-path:url(#SVGID_00000062190278744011174550000016954860111161497747_);fill:#1162FE;}
	.st153{clip-path:url(#SVGID_00000062190278744011174550000016954860111161497747_);fill:#1062FE;}
	.st154{clip-path:url(#SVGID_00000062190278744011174550000016954860111161497747_);fill:#0F62FE;}
	.st155{fill:#001D6C;}
</style>
<g>
	<path class="st0" d="M4.8,0h22.4C29.9,0,32,2.1,32,4.8v22.4c0,2.7-2.1,4.8-4.8,4.8H4.8C2.1,32,0,29.9,0,27.2V4.8C0,2.1,2.1,0,4.8,0
		z"/>
</g>
<defs>
	<filter id="Adobe_OpacityMaskFilter" filterUnits="userSpaceOnUse" x="1" y="1" width="30" height="30">
		<feColorMatrix  type="matrix" values="1 0 0 0 0  0 1 0 0 0  0 0 1 0 0  0 0 0 1 0"/>
	</filter>
</defs>
<mask maskUnits="userSpaceOnUse" x="1" y="1" width="30" height="30" id="ibce7wmu3c_00000003825856098000033230000002753889351553440188_">
	<path class="st1" d="M14.1,25.4H6.6c-2.1,0-3.8-1.7-3.8-3.8v-9.4c0-2.1,1.7-3.7,3.8-3.8h7.5v1.9H6.6c-1,0-1.9,0.8-1.9,1.9v9.4
		c0,1,0.8,1.9,1.9,1.9h7.5V25.4L14.1,25.4z"/>
	
		<linearGradient id="Gradients__black__00000042003966729031443530000010050007124986193853_" gradientUnits="userSpaceOnUse" x1="-148.2155" y1="59.0625" x2="-138.8405" y2="59.0625" gradientTransform="matrix(1 0 0 -1 153.903 83.5)">
		<stop  offset="0" style="stop-color:#000000;stop-opacity:0"/>
		<stop  offset="0.83" style="stop-color:#000000"/>
	</linearGradient>
	
		<path id="Gradients__black__00000158021674130723554230000009381732061310409857_" style="fill:url(#Gradients__black__00000042003966729031443530000010050007124986193853_);" d="
		M5.7,22.6h9.4v3.8H5.7V22.6z"/>
	<path class="st0" d="M14.8,30.1l-1.6-0.9l3.2-5.6h5.2c1,0,1.9-0.8,1.9-1.9v-8.4h1.9v8.4c0,2.1-1.7,3.8-3.8,3.8h-4.1L14.8,30.1
		L14.8,30.1z"/>
	
		<linearGradient id="SVGID_1_" gradientUnits="userSpaceOnUse" x1="-1488.125" y1="163.0128" x2="-1478.75" y2="163.0128" gradientTransform="matrix(6.123234e-17 -1 -1 -6.123234e-17 187.5 -1466.5)">
		<stop  offset="0" style="stop-color:#000000;stop-opacity:0"/>
		<stop  offset="0.6" style="stop-color:#000000"/>
	</linearGradient>
	<path class="st3" d="M22.6,21.6v-9.4h3.8v9.4H22.6z"/>
</mask>
<g class="st4">
	<g>
		<g>
			<defs>
				<path id="SVGID_00000138539759975784070570000004643764822329991567_" d="M1,1h30v30H1V1z"/>
			</defs>
			<clipPath id="SVGID_00000125564912157952592840000009048777534130628237_">
				<use xlink:href="#SVGID_00000138539759975784070570000004643764822329991567_"  style="overflow:visible;"/>
			</clipPath>
			<polygon style="clip-path:url(#SVGID_00000125564912157952592840000009048777534130628237_);fill:#A56EFF;" points="1,25 7,31 
				1,31 			"/>
			<polygon style="clip-path:url(#SVGID_00000125564912157952592840000009048777534130628237_);fill:#A56EFF;" points="1,24.7 
				7.3,31 7,31 1,25 			"/>
			<polygon style="clip-path:url(#SVGID_00000125564912157952592840000009048777534130628237_);fill:#A46EFF;" points="1,24.4 
				7.6,31 7.3,31 1,24.7 			"/>
			<polygon style="clip-path:url(#SVGID_00000125564912157952592840000009048777534130628237_);fill:#A36EFF;" points="1,24 8,31 
				7.6,31 1,24.4 			"/>
			<polygon style="clip-path:url(#SVGID_00000125564912157952592840000009048777534130628237_);fill:#A26EFF;" points="1,23.7 
				8.3,31 8,31 1,24 			"/>
			<polygon style="clip-path:url(#SVGID_00000125564912157952592840000009048777534130628237_);fill:#A16EFF;" points="1,23.4 
				8.6,31 8.3,31 1,23.7 			"/>
			<polygon style="clip-path:url(#SVGID_00000125564912157952592840000009048777534130628237_);fill:#A06EFF;" points="1,23.1 
				8.9,31 8.6,31 1,23.4 			"/>
			<polygon style="clip-path:url(#SVGID_00000125564912157952592840000009048777534130628237_);fill:#9F6EFF;" points="1,22.8 
				9.2,31 8.9,31 1,23.1 			"/>
			<polygon style="clip-path:url(#SVGID_00000125564912157952592840000009048777534130628237_);fill:#9E6DFF;" points="1,22.4 
				9.6,31 9.2,31 1,22.8 			"/>
			<polygon style="clip-path:url(#SVGID_00000125564912157952592840000009048777534130628237_);fill:#9D6DFF;" points="1,22.1 
				9.9,31 9.6,31 1,22.4 			"/>
			<polygon style="clip-path:url(#SVGID_00000125564912157952592840000009048777534130628237_);fill:#9C6DFF;" points="1,21.8 
				10.2,31 9.9,31 1,22.1 			"/>
			<polygon style="clip-path:url(#SVGID_00000125564912157952592840000009048777534130628237_);fill:#9B6DFF;" points="1,21.5 
				10.5,31 10.2,31 1,21.8 			"/>
			<polygon style="clip-path:url(#SVGID_00000125564912157952592840000009048777534130628237_);fill:#9A6DFF;" points="1,21.2 
				10.8,31 10.5,31 1,21.5 			"/>
			<polygon style="clip-path:url(#SVGID_00000125564912157952592840000009048777534130628237_);fill:#996DFF;" points="1,20.8 
				11.2,31 10.8,31 1,21.2 			"/>
			<polygon style="clip-path:url(#SVGID_00000125564912157952592840000009048777534130628237_);fill:#986DFF;" points="1,20.5 
				11.5,31 11.2,31 1,20.8 			"/>
			<polygon style="clip-path:url(#SVGID_00000125564912157952592840000009048777534130628237_);fill:#976DFF;" points="1,20.2 
				11.8,31 11.5,31 1,20.5 			"/>
			<polygon style="clip-path:url(#SVGID_00000125564912157952592840000009048777534130628237_);fill:#966DFF;" points="1,19.9 
				12.1,31 11.8,31 1,20.2 			"/>
			<polygon style="clip-path:url(#SVGID_00000125564912157952592840000009048777534130628237_);fill:#956DFF;" points="1,19.6 
				12.4,31 12.1,31 1,19.9 			"/>
			<polygon style="clip-path:url(#SVGID_00000125564912157952592840000009048777534130628237_);fill:#946DFF;" points="1,19.2 
				12.8,31 12.4,31 1,19.6 			"/>
			<polygon style="clip-path:url(#SVGID_00000125564912157952592840000009048777534130628237_);fill:#936DFF;" points="1,18.9 
				13.1,31 12.8,31 1,19.2 			"/>
			<polygon style="clip-path:url(#SVGID_00000125564912157952592840000009048777534130628237_);fill:#926CFF;" points="1,18.6 
				13.4,31 13.1,31 1,18.9 			"/>
			<polygon style="clip-path:url(#SVGID_00000125564912157952592840000009048777534130628237_);fill:#916CFF;" points="1,18.3 
				13.7,31 13.4,31 1,18.6 			"/>
			<polygon style="clip-path:url(#SVGID_00000125564912157952592840000009048777534130628237_);fill:#906CFF;" points="1,18 14,31 
				13.7,31 1,18.3 			"/>
			<polygon style="clip-path:url(#SVGID_00000125564912157952592840000009048777534130628237_);fill:#8F6CFF;" points="1,17.6 
				14.4,31 14,31 1,18 			"/>
			<polygon style="clip-path:url(#SVGID_00000125564912157952592840000009048777534130628237_);fill:#8E6CFF;" points="1,17.3 
				14.7,31 14.4,31 1,17.6 			"/>
			<polygon style="clip-path:url(#SVGID_00000125564912157952592840000009048777534130628237_);fill:#8D6CFF;" points="1,17 15,31 
				14.7,31 1,17.3 			"/>
			<polygon style="clip-path:url(#SVGID_00000125564912157952592840000009048777534130628237_);fill:#8C6CFF;" points="1,16.7 
				15.3,31 15,31 1,17 			"/>
			<polygon style="clip-path:url(#SVGID_00000125564912157952592840000009048777534130628237_);fill:#8B6CFF;" points="1,16.4 
				15.6,31 15.3,31 1,16.7 			"/>
			<polygon style="clip-path:url(#SVGID_00000125564912157952592840000009048777534130628237_);fill:#8A6CFF;" points="1,16 16,31 
				15.6,31 1,16.4 			"/>
			<polygon style="clip-path:url(#SVGID_00000125564912157952592840000009048777534130628237_);fill:#896CFF;" points="1,15.7 
				16.3,31 16,31 1,16 			"/>
			<polygon style="clip-path:url(#SVGID_00000125564912157952592840000009048777534130628237_);fill:#886CFF;" points="1,15.4 
				16.6,31 16.3,31 1,15.7 			"/>
			<polygon style="clip-path:url(#SVGID_00000125564912157952592840000009048777534130628237_);fill:#876CFF;" points="1,15.1 
				16.9,31 16.6,31 1,15.4 			"/>
			<polygon style="clip-path:url(#SVGID_00000125564912157952592840000009048777534130628237_);fill:#866CFF;" points="1,14.8 
				17.2,31 16.9,31 1,15.1 			"/>
			<polygon style="clip-path:url(#SVGID_00000125564912157952592840000009048777534130628237_);fill:#856BFF;" points="1,14.4 
				17.6,31 17.2,31 1,14.8 			"/>
			<polygon style="clip-path:url(#SVGID_00000125564912157952592840000009048777534130628237_);fill:#846BFF;" points="1,14.1 
				17.9,31 17.6,31 1,14.4 			"/>
			<polygon style="clip-path:url(#SVGID_00000125564912157952592840000009048777534130628237_);fill:#836BFF;" points="1,13.8 
				18.2,31 17.9,31 1,14.1 			"/>
			<polygon style="clip-path:url(#SVGID_00000125564912157952592840000009048777534130628237_);fill:#826BFF;" points="1,13.5 
				18.5,31 18.2,31 1,13.8 			"/>
			<polygon style="clip-path:url(#SVGID_00000125564912157952592840000009048777534130628237_);fill:#816BFF;" points="1,13.2 
				18.8,31 18.5,31 1,13.5 			"/>
			<polygon style="clip-path:url(#SVGID_00000125564912157952592840000009048777534130628237_);fill:#806BFF;" points="1,12.8 
				19.2,31 18.8,31 1,13.2 			"/>
			<polygon style="clip-path:url(#SVGID_00000125564912157952592840000009048777534130628237_);fill:#7F6BFF;" points="1,12.5 
				19.5,31 19.2,31 1,12.8 			"/>
			<polygon style="clip-path:url(#SVGID_00000125564912157952592840000009048777534130628237_);fill:#7E6BFF;" points="1,12.2 
				19.8,31 19.5,31 1,12.5 			"/>
			<polygon style="clip-path:url(#SVGID_00000125564912157952592840000009048777534130628237_);fill:#7D6BFF;" points="1,11.9 
				20.1,31 19.8,31 1,12.2 			"/>
			<polygon style="clip-path:url(#SVGID_00000125564912157952592840000009048777534130628237_);fill:#7C6BFF;" points="1,11.6 
				20.4,31 20.1,31 1,11.9 			"/>
			<polygon style="clip-path:url(#SVGID_00000125564912157952592840000009048777534130628237_);fill:#7B6BFF;" points="1,11.2 
				20.8,31 20.4,31 1,11.6 			"/>
			<polygon style="clip-path:url(#SVGID_00000125564912157952592840000009048777534130628237_);fill:#7A6BFF;" points="1,10.9 
				21.1,31 20.8,31 1,11.2 			"/>
			<polygon style="clip-path:url(#SVGID_00000125564912157952592840000009048777534130628237_);fill:#796AFF;" points="1,10.6 
				21.4,31 21.1,31 1,10.9 			"/>
			<polygon style="clip-path:url(#SVGID_00000125564912157952592840000009048777534130628237_);fill:#786AFF;" points="1,10.3 
				21.7,31 21.4,31 1,10.6 			"/>
			<polygon style="clip-path:url(#SVGID_00000125564912157952592840000009048777534130628237_);fill:#776AFF;" points="1,10 22,31 
				21.7,31 1,10.3 			"/>
			<polygon style="clip-path:url(#SVGID_00000125564912157952592840000009048777534130628237_);fill:#766AFF;" points="1,9.6 
				22.4,31 22,31 1,10 			"/>
			<polygon style="clip-path:url(#SVGID_00000125564912157952592840000009048777534130628237_);fill:#756AFF;" points="1,9.3 
				22.7,31 22.4,31 1,9.6 			"/>
			<polygon style="clip-path:url(#SVGID_00000125564912157952592840000009048777534130628237_);fill:#746AFF;" points="1,9 23,31 
				22.7,31 1,9.3 			"/>
			<polygon style="clip-path:url(#SVGID_00000125564912157952592840000009048777534130628237_);fill:#736AFF;" points="1,8.7 
				23.3,31 23,31 1,9 			"/>
			<polygon style="clip-path:url(#SVGID_00000125564912157952592840000009048777534130628237_);fill:#726AFF;" points="1,8.4 
				23.6,31 23.3,31 1,8.7 			"/>
			<polygon style="clip-path:url(#SVGID_00000125564912157952592840000009048777534130628237_);fill:#716AFF;" points="1,8 24,31 
				23.6,31 1,8.4 			"/>
			<polygon style="clip-path:url(#SVGID_00000125564912157952592840000009048777534130628237_);fill:#706AFF;" points="1,7.7 
				24.3,31 24,31 1,8 			"/>
			<polygon style="clip-path:url(#SVGID_00000125564912157952592840000009048777534130628237_);fill:#6F6AFF;" points="1,7.4 
				24.6,31 24.3,31 1,7.7 			"/>
			<polygon style="clip-path:url(#SVGID_00000125564912157952592840000009048777534130628237_);fill:#6E6AFF;" points="1,7.1 
				24.9,31 24.6,31 1,7.4 			"/>
			<polygon style="clip-path:url(#SVGID_00000125564912157952592840000009048777534130628237_);fill:#6D69FF;" points="1,6.8 
				25.2,31 24.9,31 1,7.1 			"/>
			<polygon style="clip-path:url(#SVGID_00000125564912157952592840000009048777534130628237_);fill:#6C69FF;" points="1,6.4 
				25.6,31 25.2,31 1,6.8 			"/>
			<polygon style="clip-path:url(#SVGID_00000125564912157952592840000009048777534130628237_);fill:#6B69FF;" points="1,6.1 
				25.9,31 25.6,31 1,6.4 			"/>
			<polygon style="clip-path:url(#SVGID_00000125564912157952592840000009048777534130628237_);fill:#6A69FF;" points="1,5.8 
				26.2,31 25.9,31 1,6.1 			"/>
			<polygon style="clip-path:url(#SVGID_00000125564912157952592840000009048777534130628237_);fill:#6969FF;" points="1,5.5 
				26.5,31 26.2,31 1,5.8 			"/>
			<polygon style="clip-path:url(#SVGID_00000125564912157952592840000009048777534130628237_);fill:#6869FF;" points="1,5.2 
				26.8,31 26.5,31 1,5.5 			"/>
			<polygon style="clip-path:url(#SVGID_00000125564912157952592840000009048777534130628237_);fill:#6769FF;" points="1,4.8 
				27.2,31 26.8,31 1,5.2 			"/>
			<polygon style="clip-path:url(#SVGID_00000125564912157952592840000009048777534130628237_);fill:#6669FF;" points="1,4.5 
				27.5,31 27.2,31 1,4.8 			"/>
			<polygon style="clip-path:url(#SVGID_00000125564912157952592840000009048777534130628237_);fill:#6569FF;" points="1,4.2 
				27.8,31 27.5,31 1,4.5 			"/>
			<polygon style="clip-path:url(#SVGID_00000125564912157952592840000009048777534130628237_);fill:#6469FF;" points="1,3.9 
				28.1,31 27.8,31 1,4.2 			"/>
			<polygon style="clip-path:url(#SVGID_00000125564912157952592840000009048777534130628237_);fill:#6369FF;" points="1,3.6 
				28.4,31 28.1,31 1,3.9 			"/>
			<polygon style="clip-path:url(#SVGID_00000125564912157952592840000009048777534130628237_);fill:#6269FF;" points="1,3.2 
				28.8,31 28.4,31 1,3.6 			"/>
			<polygon style="clip-path:url(#SVGID_00000125564912157952592840000009048777534130628237_);fill:#6169FF;" points="1,2.9 
				29.1,31 28.8,31 1,3.2 			"/>
			<polygon style="clip-path:url(#SVGID_00000125564912157952592840000009048777534130628237_);fill:#6068FF;" points="1,2.6 
				29.4,31 29.1,31 1,2.9 			"/>
			<polygon style="clip-path:url(#SVGID_00000125564912157952592840000009048777534130628237_);fill:#5F68FF;" points="1,2.3 
				29.7,31 29.4,31 1,2.6 			"/>
			<polygon style="clip-path:url(#SVGID_00000125564912157952592840000009048777534130628237_);fill:#5E68FF;" points="1,2 30,31 
				29.7,31 1,2.3 			"/>
			<polygon style="clip-path:url(#SVGID_00000125564912157952592840000009048777534130628237_);fill:#5D68FF;" points="1,1.6 
				30.4,31 30,31 1,2 			"/>
			<polygon style="clip-path:url(#SVGID_00000125564912157952592840000009048777534130628237_);fill:#5C68FF;" points="1,1.3 
				30.7,31 30.4,31 1,1.6 			"/>
			<polygon style="clip-path:url(#SVGID_00000125564912157952592840000009048777534130628237_);fill:#5B68FF;" points="1,1 31,31 
				30.7,31 1,1.3 			"/>
			<polygon style="clip-path:url(#SVGID_00000125564912157952592840000009048777534130628237_);fill:#5968FE;" points="1.3,1 
				31,30.7 31,31 1,1 			"/>
			<polygon style="clip-path:url(#SVGID_00000125564912157952592840000009048777534130628237_);fill:#5868FE;" points="1.6,1 
				31,30.4 31,30.7 1.3,1 			"/>
			<polygon style="clip-path:url(#SVGID_00000125564912157952592840000009048777534130628237_);fill:#5768FE;" points="2,1 31,30 
				31,30.4 1.6,1 			"/>
			<polygon style="clip-path:url(#SVGID_00000125564912157952592840000009048777534130628237_);fill:#5668FE;" points="2.3,1 
				31,29.7 31,30 2,1 			"/>
			<polygon style="clip-path:url(#SVGID_00000125564912157952592840000009048777534130628237_);fill:#5568FE;" points="2.6,1 
				31,29.4 31,29.7 2.3,1 			"/>
			<polygon style="clip-path:url(#SVGID_00000125564912157952592840000009048777534130628237_);fill:#5468FE;" points="2.9,1 
				31,29.1 31,29.4 2.6,1 			"/>
			<polygon style="clip-path:url(#SVGID_00000125564912157952592840000009048777534130628237_);fill:#5367FE;" points="3.2,1 
				31,28.8 31,29.1 2.9,1 			"/>
			<polygon style="clip-path:url(#SVGID_00000125564912157952592840000009048777534130628237_);fill:#5267FE;" points="3.6,1 
				31,28.4 31,28.8 3.2,1 			"/>
			<polygon style="clip-path:url(#SVGID_00000125564912157952592840000009048777534130628237_);fill:#5167FE;" points="3.9,1 
				31,28.1 31,28.4 3.6,1 			"/>
			<polygon style="clip-path:url(#SVGID_00000125564912157952592840000009048777534130628237_);fill:#5067FE;" points="4.2,1 
				31,27.8 31,28.1 3.9,1 			"/>
			<polygon style="clip-path:url(#SVGID_00000125564912157952592840000009048777534130628237_);fill:#4F67FE;" points="4.5,1 
				31,27.5 31,27.8 4.2,1 			"/>
			<polygon style="clip-path:url(#SVGID_00000125564912157952592840000009048777534130628237_);fill:#4E67FE;" points="4.8,1 
				31,27.2 31,27.5 4.5,1 			"/>
			<polygon style="clip-path:url(#SVGID_00000125564912157952592840000009048777534130628237_);fill:#4D67FE;" points="5.2,1 
				31,26.8 31,27.2 4.8,1 			"/>
			<polygon style="clip-path:url(#SVGID_00000125564912157952592840000009048777534130628237_);fill:#4C67FE;" points="5.5,1 
				31,26.5 31,26.8 5.2,1 			"/>
			<polygon style="clip-path:url(#SVGID_00000125564912157952592840000009048777534130628237_);fill:#4B67FE;" points="5.8,1 
				31,26.2 31,26.5 5.5,1 			"/>
			<polygon style="clip-path:url(#SVGID_00000125564912157952592840000009048777534130628237_);fill:#4A67FE;" points="6.1,1 
				31,25.9 31,26.2 5.8,1 			"/>
			<polygon style="clip-path:url(#SVGID_00000125564912157952592840000009048777534130628237_);fill:#4967FE;" points="6.4,1 
				31,25.6 31,25.9 6.1,1 			"/>
			<polygon style="clip-path:url(#SVGID_00000125564912157952592840000009048777534130628237_);fill:#4867FE;" points="6.8,1 
				31,25.2 31,25.6 6.4,1 			"/>
			<polygon style="clip-path:url(#SVGID_00000125564912157952592840000009048777534130628237_);fill:#4767FE;" points="7.1,1 
				31,24.9 31,25.2 6.8,1 			"/>
			<polygon style="clip-path:url(#SVGID_00000125564912157952592840000009048777534130628237_);fill:#4666FE;" points="7.4,1 
				31,24.6 31,24.9 7.1,1 			"/>
			<polygon style="clip-path:url(#SVGID_00000125564912157952592840000009048777534130628237_);fill:#4566FE;" points="7.7,1 
				31,24.3 31,24.6 7.4,1 			"/>
			<polygon style="clip-path:url(#SVGID_00000125564912157952592840000009048777534130628237_);fill:#4466FE;" points="8,1 31,24 
				31,24.3 7.7,1 			"/>
			<polygon style="clip-path:url(#SVGID_00000125564912157952592840000009048777534130628237_);fill:#4366FE;" points="8.4,1 
				31,23.6 31,24 8,1 			"/>
			<polygon style="clip-path:url(#SVGID_00000125564912157952592840000009048777534130628237_);fill:#4266FE;" points="8.7,1 
				31,23.3 31,23.6 8.4,1 			"/>
			<polygon style="clip-path:url(#SVGID_00000125564912157952592840000009048777534130628237_);fill:#4166FE;" points="9,1 31,23 
				31,23.3 8.7,1 			"/>
			<polygon style="clip-path:url(#SVGID_00000125564912157952592840000009048777534130628237_);fill:#4066FE;" points="9.3,1 
				31,22.7 31,23 9,1 			"/>
			<polygon style="clip-path:url(#SVGID_00000125564912157952592840000009048777534130628237_);fill:#3F66FE;" points="9.6,1 
				31,22.4 31,22.7 9.3,1 			"/>
			<polygon style="clip-path:url(#SVGID_00000125564912157952592840000009048777534130628237_);fill:#3E66FE;" points="10,1 31,22 
				31,22.4 9.6,1 			"/>
			<polygon style="clip-path:url(#SVGID_00000125564912157952592840000009048777534130628237_);fill:#3D66FE;" points="10.3,1 
				31,21.7 31,22 10,1 			"/>
			<polygon style="clip-path:url(#SVGID_00000125564912157952592840000009048777534130628237_);fill:#3C66FE;" points="10.6,1 
				31,21.4 31,21.7 10.3,1 			"/>
			<polygon style="clip-path:url(#SVGID_00000125564912157952592840000009048777534130628237_);fill:#3B66FE;" points="10.9,1 
				31,21.1 31,21.4 10.6,1 			"/>
			<polygon style="clip-path:url(#SVGID_00000125564912157952592840000009048777534130628237_);fill:#3A65FE;" points="11.2,1 
				31,20.8 31,21.1 10.9,1 			"/>
			<polygon style="clip-path:url(#SVGID_00000125564912157952592840000009048777534130628237_);fill:#3965FE;" points="11.6,1 
				31,20.4 31,20.8 11.2,1 			"/>
			<polygon style="clip-path:url(#SVGID_00000125564912157952592840000009048777534130628237_);fill:#3865FE;" points="11.9,1 
				31,20.1 31,20.4 11.6,1 			"/>
			<polygon style="clip-path:url(#SVGID_00000125564912157952592840000009048777534130628237_);fill:#3765FE;" points="12.2,1 
				31,19.8 31,20.1 11.9,1 			"/>
			<polygon style="clip-path:url(#SVGID_00000125564912157952592840000009048777534130628237_);fill:#3665FE;" points="12.5,1 
				31,19.5 31,19.8 12.2,1 			"/>
			<polygon style="clip-path:url(#SVGID_00000125564912157952592840000009048777534130628237_);fill:#3565FE;" points="12.8,1 
				31,19.2 31,19.5 12.5,1 			"/>
			<polygon style="clip-path:url(#SVGID_00000125564912157952592840000009048777534130628237_);fill:#3465FE;" points="13.2,1 
				31,18.8 31,19.2 12.8,1 			"/>
			<polygon style="clip-path:url(#SVGID_00000125564912157952592840000009048777534130628237_);fill:#3365FE;" points="13.5,1 
				31,18.5 31,18.8 13.2,1 			"/>
			<polygon style="clip-path:url(#SVGID_00000125564912157952592840000009048777534130628237_);fill:#3265FE;" points="13.8,1 
				31,18.2 31,18.5 13.5,1 			"/>
			<polygon style="clip-path:url(#SVGID_00000125564912157952592840000009048777534130628237_);fill:#3165FE;" points="14.1,1 
				31,17.9 31,18.2 13.8,1 			"/>
			<polygon style="clip-path:url(#SVGID_00000125564912157952592840000009048777534130628237_);fill:#3065FE;" points="14.4,1 
				31,17.6 31,17.9 14.1,1 			"/>
			<polygon style="clip-path:url(#SVGID_00000125564912157952592840000009048777534130628237_);fill:#2F65FE;" points="14.8,1 
				31,17.2 31,17.6 14.4,1 			"/>
			<polygon style="clip-path:url(#SVGID_00000125564912157952592840000009048777534130628237_);fill:#2E64FE;" points="15.1,1 
				31,16.9 31,17.2 14.8,1 			"/>
			<polygon style="clip-path:url(#SVGID_00000125564912157952592840000009048777534130628237_);fill:#2D64FE;" points="15.4,1 
				31,16.6 31,16.9 15.1,1 			"/>
			<polygon style="clip-path:url(#SVGID_00000125564912157952592840000009048777534130628237_);fill:#2C64FE;" points="15.7,1 
				31,16.3 31,16.6 15.4,1 			"/>
			<polygon style="clip-path:url(#SVGID_00000125564912157952592840000009048777534130628237_);fill:#2B64FE;" points="16,1 31,16 
				31,16.3 15.7,1 			"/>
			<polygon style="clip-path:url(#SVGID_00000125564912157952592840000009048777534130628237_);fill:#2A64FE;" points="16.4,1 
				31,15.6 31,16 16,1 			"/>
			<polygon style="clip-path:url(#SVGID_00000125564912157952592840000009048777534130628237_);fill:#2964FE;" points="16.7,1 
				31,15.3 31,15.6 16.4,1 			"/>
			<polygon style="clip-path:url(#SVGID_00000125564912157952592840000009048777534130628237_);fill:#2864FE;" points="17,1 31,15 
				31,15.3 16.7,1 			"/>
			<polygon style="clip-path:url(#SVGID_00000125564912157952592840000009048777534130628237_);fill:#2764FE;" points="17.3,1 
				31,14.7 31,15 17,1 			"/>
			<polygon style="clip-path:url(#SVGID_00000125564912157952592840000009048777534130628237_);fill:#2664FE;" points="17.6,1 
				31,14.4 31,14.7 17.3,1 			"/>
			<polygon style="clip-path:url(#SVGID_00000125564912157952592840000009048777534130628237_);fill:#2564FE;" points="18,1 31,14 
				31,14.4 17.6,1 			"/>
			<polygon style="clip-path:url(#SVGID_00000125564912157952592840000009048777534130628237_);fill:#2464FE;" points="18.3,1 
				31,13.7 31,14 18,1 			"/>
			<polygon style="clip-path:url(#SVGID_00000125564912157952592840000009048777534130628237_);fill:#2364FE;" points="18.6,1 
				31,13.4 31,13.7 18.3,1 			"/>
			<polygon style="clip-path:url(#SVGID_00000125564912157952592840000009048777534130628237_);fill:#2264FE;" points="18.9,1 
				31,13.1 31,13.4 18.6,1 			"/>
			<polygon style="clip-path:url(#SVGID_00000125564912157952592840000009048777534130628237_);fill:#2163FE;" points="19.2,1 
				31,12.8 31,13.1 18.9,1 			"/>
			<polygon style="clip-path:url(#SVGID_00000125564912157952592840000009048777534130628237_);fill:#2063FE;" points="19.6,1 
				31,12.4 31,12.8 19.2,1 			"/>
			<polygon style="clip-path:url(#SVGID_00000125564912157952592840000009048777534130628237_);fill:#1F63FE;" points="19.9,1 
				31,12.1 31,12.4 19.6,1 			"/>
			<polygon style="clip-path:url(#SVGID_00000125564912157952592840000009048777534130628237_);fill:#1E63FE;" points="20.2,1 
				31,11.8 31,12.1 19.9,1 			"/>
			<polygon style="clip-path:url(#SVGID_00000125564912157952592840000009048777534130628237_);fill:#1D63FE;" points="20.5,1 
				31,11.5 31,11.8 20.2,1 			"/>
			<polygon style="clip-path:url(#SVGID_00000125564912157952592840000009048777534130628237_);fill:#1C63FE;" points="20.8,1 
				31,11.2 31,11.5 20.5,1 			"/>
			<polygon style="clip-path:url(#SVGID_00000125564912157952592840000009048777534130628237_);fill:#1B63FE;" points="21.2,1 
				31,10.8 31,11.2 20.8,1 			"/>
			<polygon style="clip-path:url(#SVGID_00000125564912157952592840000009048777534130628237_);fill:#1A63FE;" points="21.5,1 
				31,10.5 31,10.8 21.2,1 			"/>
			<polygon style="clip-path:url(#SVGID_00000125564912157952592840000009048777534130628237_);fill:#1963FE;" points="21.8,1 
				31,10.2 31,10.5 21.5,1 			"/>
			<polygon style="clip-path:url(#SVGID_00000125564912157952592840000009048777534130628237_);fill:#1863FE;" points="22.1,1 
				31,9.9 31,10.2 21.8,1 			"/>
			<polygon style="clip-path:url(#SVGID_00000125564912157952592840000009048777534130628237_);fill:#1763FE;" points="22.4,1 
				31,9.6 31,9.9 22.1,1 			"/>
			<polygon style="clip-path:url(#SVGID_00000125564912157952592840000009048777534130628237_);fill:#1663FE;" points="22.8,1 
				31,9.2 31,9.6 22.4,1 			"/>
			<polygon style="clip-path:url(#SVGID_00000125564912157952592840000009048777534130628237_);fill:#1562FE;" points="23.1,1 
				31,8.9 31,9.2 22.8,1 			"/>
			<polygon style="clip-path:url(#SVGID_00000125564912157952592840000009048777534130628237_);fill:#1462FE;" points="23.4,1 
				31,8.6 31,8.9 23.1,1 			"/>
			<polygon style="clip-path:url(#SVGID_00000125564912157952592840000009048777534130628237_);fill:#1362FE;" points="23.7,1 
				31,8.3 31,8.6 23.4,1 			"/>
			<polygon style="clip-path:url(#SVGID_00000125564912157952592840000009048777534130628237_);fill:#1262FE;" points="24,1 31,8 
				31,8.3 23.7,1 			"/>
			<polygon style="clip-path:url(#SVGID_00000125564912157952592840000009048777534130628237_);fill:#1162FE;" points="24.4,1 
				31,7.6 31,8 24,1 			"/>
			<polygon style="clip-path:url(#SVGID_00000125564912157952592840000009048777534130628237_);fill:#1062FE;" points="24.7,1 
				31,7.3 31,7.6 24.4,1 			"/>
			<polygon style="clip-path:url(#SVGID_00000125564912157952592840000009048777534130628237_);fill:#0F62FE;" points="25,1 31,7 
				31,7.3 24.7,1 			"/>
			<polygon style="clip-path:url(#SVGID_00000125564912157952592840000009048777534130628237_);fill:#0F62FE;" points="31,7 25,1 
				31,1 			"/>
		</g>
	</g>
</g>
<g>
	<circle class="st155" cx="10.4" cy="16.9" r="0.9"/>
</g>
<g>
	<circle class="st155" cx="14.1" cy="16.9" r="0.9"/>
</g>
<g>
	<circle class="st155" cx="17.9" cy="16.9" r="0.9"/>
</g>
<g>
	<path class="st155" d="M27.2,2.9h-9.4c-1,0-1.9,0.8-1.9,1.9v5.6c0,1,0.8,1.9,1.9,1.9h2.3l1.6,2.8l1.6-0.9l-2.2-3.8h-3.4V4.8h9.4
		v5.6h-2.8v1.9h2.8c1,0,1.9-0.8,1.9-1.9V4.8C29.1,3.7,28.3,2.9,27.2,2.9L27.2,2.9z"/>
</g>
</svg>
