<?xml version="1.0" encoding="utf-8"?>
<!-- Generator: Adobe Illustrator 27.2.0, SVG Export Plug-In . SVG Version: 6.00 Build 0)  -->
<svg version="1.1" id="WatsonAssistant" xmlns="http://www.w3.org/2000/svg" xmlns:xlink="http://www.w3.org/1999/xlink" x="0px"
	 y="0px" viewBox="0 0 32 32" style="enable-background:new 0 0 32 32;" xml:space="preserve">
<style type="text/css">
	.st0{fill:#FFFFFF;}
	.st1{fill:#FFFFFF;filter:url(#Adobe_OpacityMaskFilter);}
	.st2{fill:url(#Gradients__black__00000042738995602220459110000007581357714890884510_);}
	.st3{fill:url(#SVGID_1_);}
	.st4{mask:url(#ibce7wmu3c_00000003825856098000033230000002753889351553440188_);}
	.st5{fill:url(#SVGID_00000082344260907297107440000003556156959749196424_);}
	.st6{fill:#001D6C;}
</style>
<path class="st0" d="M4.8,0h22.4C29.9,0,32,2.1,32,4.8v22.4c0,2.7-2.1,4.8-4.8,4.8H4.8C2.1,32,0,29.9,0,27.2V4.8C0,2.1,2.1,0,4.8,0z
	"/>
<defs>
	<filter id="Adobe_OpacityMaskFilter" filterUnits="userSpaceOnUse" x="1" y="1" width="30" height="30">
		<feColorMatrix  type="matrix" values="1 0 0 0 0  0 1 0 0 0  0 0 1 0 0  0 0 0 1 0"/>
	</filter>
</defs>
<mask maskUnits="userSpaceOnUse" x="1" y="1" width="30" height="30" id="ibce7wmu3c_00000003825856098000033230000002753889351553440188_">
	<path class="st1" d="M14.1,25.4H6.6c-2.1,0-3.8-1.7-3.8-3.8v-9.4c0-2.1,1.7-3.7,3.8-3.8h7.5v1.9H6.6c-1,0-1.9,0.8-1.9,1.9v9.4
		c0,1,0.8,1.9,1.9,1.9h7.5V25.4L14.1,25.4z"/>
	
		<linearGradient id="Gradients__black__00000067950419798607095590000009068518009708787595_" gradientUnits="userSpaceOnUse" x1="-148.2155" y1="59.0625" x2="-138.8405" y2="59.0625" gradientTransform="matrix(1 0 0 -1 153.903 83.5)">
		<stop  offset="0" style="stop-color:#000000;stop-opacity:0"/>
		<stop  offset="0.83" style="stop-color:#000000"/>
	</linearGradient>
	
		<path id="Gradients__black__00000158021674130723554230000009381732061310409857_" style="fill:url(#Gradients__black__00000067950419798607095590000009068518009708787595_);" d="
		M5.7,22.6h9.4v3.8H5.7V22.6z"/>
	<path class="st0" d="M14.8,30.1l-1.6-0.9l3.2-5.6h5.2c1,0,1.9-0.8,1.9-1.9v-8.4h1.9v8.4c0,2.1-1.7,3.8-3.8,3.8h-4.1L14.8,30.1
		L14.8,30.1z"/>
	
		<linearGradient id="SVGID_1_" gradientUnits="userSpaceOnUse" x1="-1488.125" y1="163.0128" x2="-1478.75" y2="163.0128" gradientTransform="matrix(6.123234e-17 -1 -1 -6.123234e-17 187.5 -1466.5)">
		<stop  offset="0" style="stop-color:#000000;stop-opacity:0"/>
		<stop  offset="0.6" style="stop-color:#000000"/>
	</linearGradient>
	<path class="st3" d="M22.6,21.6v-9.4h3.8v9.4H22.6z"/>
</mask>
<g class="st4">
	
		<linearGradient id="SVGID_00000150796225214509635580000015182078118815743928_" gradientUnits="userSpaceOnUse" x1="1" y1="3" x2="31" y2="33" gradientTransform="matrix(1 0 0 -1 0 34)">
		<stop  offset="0.1" style="stop-color:#A56EFF"/>
		<stop  offset="0.9" style="stop-color:#0F62FE"/>
	</linearGradient>
	<path style="fill:url(#SVGID_00000150796225214509635580000015182078118815743928_);" d="M1,1h30v30H1V1z"/>
</g>
<circle class="st6" cx="10.4" cy="16.9" r="0.9"/>
<circle class="st6" cx="14.1" cy="16.9" r="0.9"/>
<circle class="st6" cx="17.9" cy="16.9" r="0.9"/>
<path class="st6" d="M27.2,2.9h-9.4c-1,0-1.9,0.8-1.9,1.9v5.6c0,1,0.8,1.9,1.9,1.9h2.3l1.6,2.8l1.6-0.9l-2.2-3.8h-3.4V4.8h9.4v5.6
	h-2.8v1.9h2.8c1,0,1.9-0.8,1.9-1.9V4.8C29.1,3.7,28.3,2.9,27.2,2.9L27.2,2.9z"/>
</svg>
